<svg xmlns="http://www.w3.org/2000/svg" viewBox="0 0 300 300" width="300" height="300">
  <defs>
    <style>
      .eagle-body { fill: #1a237e; stroke: #000; stroke-width: 1; }
      .gold-element { fill: #ffd700; stroke: #b8860b; stroke-width: 0.5; }
      .crown { fill: #ffd700; stroke: #b8860b; stroke-width: 1; }
      .ruby { fill: #8b0000; }
      .silver { fill: #e8e8e8; stroke: #999; stroke-width: 0.5; }
      .motto-text { fill: #1a237e; font-family: serif; font-size: 8px; font-weight: bold; }
      .degree-text { fill: #1a237e; font-family: serif; font-size: 16px; font-weight: bold; }
      .beak { fill: #ffa500; }
      .eye { fill: #ff0000; }
    </style>
  </defs>
  
  <!-- Scottish Rite Double-Headed Eagle -->
  <g transform="translate(150,150)">
    
    <!-- Eagle body (central) -->
    <ellipse cx="0" cy="15" rx="25" ry="35" class="eagle-body"/>
    
    <!-- Left wing (spread) -->
    <path d="M-25,5 Q-70,-30 -85,-15 Q-75,5 -60,25 Q-45,35 -25,30 Z" class="eagle-body"/>
    
    <!-- Right wing (spread) -->
    <path d="M25,5 Q70,-30 85,-15 Q75,5 60,25 Q45,35 25,30 Z" class="eagle-body"/>
    
    <!-- Left eagle head -->
    <g transform="translate(-35,-35)">
      <ellipse cx="0" cy="0" rx="15" ry="18" class="eagle-body"/>
      <!-- Left beak -->
      <polygon points="-12,0 -20,-3 -18,3" class="beak"/>
      <!-- Left eye -->
      <circle cx="-5" cy="-3" r="2" class="eye"/>
      <!-- Left neck feathers -->
      <path d="M-8,8 Q-15,15 -12,20 Q-8,15 -5,18 Q-8,12 -8,8" class="eagle-body"/>
    </g>
    
    <!-- Right eagle head -->
    <g transform="translate(35,-35)">
      <ellipse cx="0" cy="0" rx="15" ry="18" class="eagle-body"/>
      <!-- Right beak -->
      <polygon points="12,0 20,-3 18,3" class="beak"/>
      <!-- Right eye -->
      <circle cx="5" cy="-3" r="2" class="eye"/>
      <!-- Right neck feathers -->
      <path d="M8,8 Q15,15 12,20 Q8,15 5,18 Q8,12 8,8" class="eagle-body"/>
    </g>
    
    <!-- Imperial Crown above -->
    <g transform="translate(0,-70)">
      <!-- Crown base -->
      <rect x="-18" y="5" width="36" height="15" class="crown"/>
      <!-- Crown points -->
      <polygon points="-18,5 -12,-5 -6,5" class="crown"/>
      <polygon points="-6,5 0,-10 6,5" class="crown"/>
      <polygon points="6,5 12,-5 18,5" class="crown"/>
      <!-- Crown jewels -->
      <circle cx="-9" cy="8" r="2" class="ruby"/>
      <circle cx="0" cy="8" r="2" class="ruby"/>
      <circle cx="9" cy="8" r="2" class="ruby"/>
      <!-- Central jewel -->
      <circle cx="0" cy="-5" r="3" class="ruby"/>
    </g>
    
    <!-- Shield on chest with Scottish Rite symbols -->
    <g transform="translate(0,10)">
      <path d="M-12,0 L-12,20 L0,30 L12,20 L12,0 Z" class="silver"/>
      <!-- 32nd degree symbol -->
      <text x="0" y="18" text-anchor="middle" class="degree-text">32°</text>
    </g>
    
    <!-- Eagle talons holding ribbon -->
    <g transform="translate(-20,55)">
      <path d="M0,0 L-3,8 L0,8 L3,8 L6,0" class="eagle-body"/>
      <path d="M-3,8 L-6,12 L-3,12 L0,8" class="eagle-body"/>
      <path d="M3,8 L6,12 L3,12 L0,8" class="eagle-body"/>
    </g>
    
    <g transform="translate(20,55)">
      <path d="M0,0 L-3,8 L0,8 L3,8 L6,0" class="eagle-body"/>
      <path d="M-3,8 L-6,12 L-3,12 L0,8" class="eagle-body"/>
      <path d="M3,8 L6,12 L3,12 L0,8" class="eagle-body"/>
    </g>
    
    <!-- Ribbon with motto "DEUS MEUMQUE JUS" -->
    <g transform="translate(0,70)">
      <rect x="-50" y="0" width="100" height="12" class="gold-element"/>
      <text x="0" y="9" text-anchor="middle" class="motto-text">DEUS MEUMQUE JUS</text>
    </g>
    
    <!-- Wing feather details -->
    <g class="eagle-body" stroke="#333" stroke-width="0.5" fill="none">
      <!-- Left wing feathers -->
      <path d="M-40,-10 Q-50,-5 -45,5"/>
      <path d="M-50,-5 Q-60,0 -55,10"/>
      <path d="M-60,5 Q-70,10 -65,20"/>
      
      <!-- Right wing feathers -->
      <path d="M40,-10 Q50,-5 45,5"/>
      <path d="M50,-5 Q60,0 55,10"/>
      <path d="M60,5 Q70,10 65,20"/>
    </g>
    
    <!-- Additional heraldic elements -->
    <!-- Small crosses on wings -->
    <g class="gold-element">
      <g transform="translate(-55,0)">
        <rect x="-2" y="-6" width="4" height="12"/>
        <rect x="-6" y="-2" width="12" height="4"/>
      </g>
      <g transform="translate(55,0)">
        <rect x="-2" y="-6" width="4" height="12"/>
        <rect x="-6" y="-2" width="12" height="4"/>
      </g>
    </g>
    
  </g>
  
  <!-- Border frame -->
  <rect x="10" y="10" width="280" height="280" fill="none" stroke="#1a237e" stroke-width="2"/>
  
  <!-- Corner decorations -->
  <g class="gold-element">
    <circle cx="30" cy="30" r="8"/>
    <circle cx="270" cy="30" r="8"/>
    <circle cx="30" cy="270" r="8"/>
    <circle cx="270" cy="270" r="8"/>
  </g>
</svg>